<svg xmlns="http://www.w3.org/2000/svg" viewBox="0 0 120 120" fill="none">
  <!-- A+ icon: hardware/motherboard -->
  <rect x="20" y="25" rx="3" ry="3" width="80" height="55" stroke="#000" stroke-width="2.5" fill="none"/>
  <rect x="30" y="35" rx="1" ry="1" width="20" height="20" stroke="#000" stroke-width="2" fill="none"/>
  <line x1="35" y1="35" x2="35" y2="55" stroke="#000" stroke-width="0.8" opacity="0.4"/>
  <line x1="45" y1="35" x2="45" y2="55" stroke="#000" stroke-width="0.8" opacity="0.4"/>
  <line x1="30" y1="42" x2="50" y2="42" stroke="#000" stroke-width="0.8" opacity="0.4"/>
  <line x1="30" y1="48" x2="50" y2="48" stroke="#000" stroke-width="0.8" opacity="0.4"/>
  <rect x="60" y="35" rx="1" ry="1" width="30" height="8" stroke="#000" stroke-width="1.5" fill="none"/>
  <rect x="60" y="48" rx="1" ry="1" width="30" height="8" stroke="#000" stroke-width="1.5" fill="none"/>
  <rect x="30" y="62" rx="1" ry="1" width="60" height="6" stroke="#000" stroke-width="1.5" fill="none"/>
  <line x1="40" y1="80" x2="40" y2="90" stroke="#000" stroke-width="2"/>
  <line x1="60" y1="80" x2="60" y2="90" stroke="#000" stroke-width="2"/>
  <line x1="80" y1="80" x2="80" y2="90" stroke="#000" stroke-width="2"/>
  <line x1="30" y1="90" x2="90" y2="90" stroke="#000" stroke-width="2"/>
</svg>
